# xmcd
#
# Track frame offsets:
#	180
#	18756
#	31895
#	48562
#	66859
#	82987
#	98157
#	114368
#	130740
#	147625
#
# Disc length: 2188 seconds
#
# Revision: 1
# Processed by: cddbd v1.5.2PL0 Copyright (c) Steve Scherf et al.
# Submitted via: audiograbber 1.83.01
#
DISCID=7e088a0a
DTITLE=Clay Jeffreys - Bustin' Out (Breakin' Through)
DYEAR=1900
DGENRE=Country
TTITLE0=Bustin' Out (Breakin' Through)
TTITLE1=Country Enough For Me
TTITLE2=The Cowboy Life
TTITLE3=I Miss You Most
TTITLE4=Honky Tonk Moon
TTITLE5=Midnight Blue
TTITLE6=I'm Still A Cowboy In My Heart
TTITLE7=Goodtime Girl
TTITLE8=I Am A True Cowboy
TTITLE9=Today's The Day
EXTD=
EXTT0=
EXTT1=
EXTT2=
EXTT3=
EXTT4=
EXTT5=
EXTT6=
EXTT7=
EXTT8=
EXTT9=
PLAYORDER=
